<?xml version="1.0" encoding="UTF-8" standalone="no"?>
<!-- Created with Inkscape (http://www.inkscape.org/) -->

<svg
   width="128"
   height="128"
   viewBox="0 0 128 128"
   version="1.1"
   id="svg1"
   inkscape:version="1.3 (0e150ed6c4, 2023-07-21)"
   sodipodi:docname="icon.svg"
   xmlns:inkscape="http://www.inkscape.org/namespaces/inkscape"
   xmlns:sodipodi="http://sodipodi.sourceforge.net/DTD/sodipodi-0.dtd"
   xmlns="http://www.w3.org/2000/svg"
   xmlns:svg="http://www.w3.org/2000/svg">
  <sodipodi:namedview
     id="namedview1"
     pagecolor="#ffffff"
     bordercolor="#000000"
     borderopacity="0.25"
     inkscape:showpageshadow="2"
     inkscape:pageopacity="0.0"
     inkscape:pagecheckerboard="0"
     inkscape:deskcolor="#d1d1d1"
     inkscape:document-units="mm"
     inkscape:zoom="5.4947811"
     inkscape:cx="52.686357"
     inkscape:cy="53.23233"
     inkscape:window-width="1920"
     inkscape:window-height="1009"
     inkscape:window-x="-8"
     inkscape:window-y="-8"
     inkscape:window-maximized="1"
     inkscape:current-layer="layer1" />
  <defs
     id="defs1" />
  <g
     inkscape:label="Layer 1"
     inkscape:groupmode="layer"
     id="layer1">
    <path
       style="font-size:64px;font-family:'Javanese Text';-inkscape-font-specification:'Javanese Text';stroke-width:3.77953"
       d="m 2.5,62.75 q 2.125,0 3.59375,-0.5625 Q 7.5625,61.59375 8.4375,60.25 9.34375,58.90625 9.71875,56.75 10.125,54.5625 10.125,51.40625 10.125,49.53125 10,46.875 9.90625,44.1875 9.71875,41.15625 9.5625,38.125 9.34375,34.9375 9.15625,31.71875 8.96875,28.8125 8.8125,25.875 8.6875,23.4375 q -0.09375,-2.46875 -0.09375,-4 0,-3.90625 0.8125,-7.03125 0.8125,-3.125 2.46875,-5.3125 Q 13.5625,4.875 16.09375,3.6875 18.65625,2.5 22.125,2.5 V 5 q -2.71875,0.15625 -4.34375,1.15625 -1.625,1 -2.5,2.65625 -0.84375,1.625 -1.125,3.75 -0.25,2.125 -0.25,4.46875 0,1.90625 0.09375,4.71875 0.125,2.78125 0.28125,6 0.15625,3.21875 0.3125,6.625 0.1875,3.375 0.34375,6.46875 0.15625,3.0625 0.25,5.625 0.125,2.5625 0.125,4.125 0,2.46875 -0.34375,4.5625 -0.3125,2.0625 -1.0625,3.75 -0.71875,1.65625 -1.9375,2.9375 -1.1875,1.25 -2.9375,2.09375 v 0.125 q 1.75,0.84375 2.9375,2.09375 1.21875,1.25 1.9375,2.90625 0.75,1.6875 1.0625,3.75 0.34375,2.09375 0.34375,4.59375 0,1.5625 -0.125,4.125 -0.09375,2.5625 -0.25,5.625 -0.15625,3.09375 -0.34375,6.46875 -0.15625,3.40625 -0.3125,6.625 -0.15625,3.21875 -0.28125,6 -0.09375,2.8125 -0.09375,4.71875 0,2.34375 0.25,4.46875 0.28125,2.125 1.125,3.75 0.875,1.65625 2.5,2.65625 1.625,1.03125 4.34375,1.15625 v 2.5 q -3.46875,0 -6.03125,-1.1875 -2.53125,-1.1875 -4.21875,-3.40625 -1.65625,-2.1875 -2.46875,-5.3125 -0.8125,-3.125 -0.8125,-7.03125 0,-1.53125 0.09375,-4 0.125,-2.4375 0.28125,-5.375 0.1875,-2.90625 0.375,-6.125 Q 9.5625,89.875 9.71875,86.84375 9.90625,83.8125 10,81.125 10.125,78.46875 10.125,76.59375 10.125,73.4375 9.71875,71.25 9.34375,69.09375 8.4375,67.75 7.5625,66.4375 6.09375,65.84375 4.625,65.25 2.5,65.25 Z"
       id="text1"
       aria-label="{" />
    <path
       style="font-size:64px;font-family:'Javanese Text';-inkscape-font-specification:'Javanese Text';stroke-width:3.77953"
       d="m 125.5,65.25 q -2.125,0 -3.59375,0.59375 -1.46875,0.59375 -2.375,1.90625 -0.875,1.34375 -1.28125,3.5 -0.375,2.1875 -0.375,5.34375 0,1.875 0.0937,4.53125 0.125,2.6875 0.28125,5.71875 0.1875,3.03125 0.375,6.21875 0.21875,3.21875 0.375,6.125 0.1875,2.9375 0.28125,5.375 0.125,2.46875 0.125,4 0,3.90625 -0.8125,7.03125 -0.8125,3.125 -2.5,5.3125 -1.65625,2.21875 -4.21875,3.40625 -2.53125,1.1875 -6,1.1875 V 123 q 2.71875,-0.125 4.34375,-1.15625 1.625,-1 2.46875,-2.65625 0.875,-1.625 1.125,-3.75 0.28125,-2.125 0.28125,-4.46875 0,-1.90625 -0.125,-4.71875 -0.0937,-2.78125 -0.25,-6 -0.15625,-3.21875 -0.34375,-6.625 -0.15625,-3.375 -0.3125,-6.46875 -0.15625,-3.0625 -0.28125,-5.625 -0.0937,-2.5625 -0.0937,-4.125 0,-2.5 0.3125,-4.59375 0.34375,-2.0625 1.0625,-3.75 0.75,-1.65625 1.9375,-2.90625 1.21875,-1.25 2.96875,-2.09375 v -0.125 q -1.75,-0.84375 -2.96875,-2.09375 -1.1875,-1.28125 -1.9375,-2.9375 -0.71875,-1.6875 -1.0625,-3.75 -0.3125,-2.09375 -0.3125,-4.5625 0,-1.5625 0.0937,-4.125 0.125,-2.5625 0.28125,-5.625 0.15625,-3.09375 0.3125,-6.46875 0.1875,-3.40625 0.34375,-6.625 0.15625,-3.21875 0.25,-6 0.125,-2.8125 0.125,-4.71875 0,-2.34375 -0.28125,-4.46875 -0.25,-2.125 -1.125,-3.75 -0.84375,-1.65625 -2.46875,-2.65625 -1.625,-1 -4.34375,-1.15625 V 2.5 q 3.46875,0 6,1.1875 2.5625,1.1875 4.21875,3.40625 1.6875,2.1875 2.5,5.3125 0.8125,3.125 0.8125,7.03125 0,1.53125 -0.125,4 -0.0937,2.4375 -0.28125,5.375 -0.15625,2.90625 -0.375,6.125 -0.1875,3.1875 -0.375,6.21875 -0.15625,3.03125 -0.28125,5.71875 -0.0937,2.65625 -0.0937,4.53125 0,3.15625 0.375,5.34375 0.40625,2.15625 1.28125,3.5 0.90625,1.34375 2.375,1.9375 Q 123.375,62.75 125.5,62.75 Z"
       id="text4"
       aria-label="}" />
    <g
       id="g5"
       transform="translate(0,-11.735926)">
      <path
         style="font-size:48px;font-family:Hack;-inkscape-font-specification:Hack;text-align:center;text-anchor:middle;stroke-width:3.77953"
         d="m 34.785156,81.575691 q -2.4375,0 -4.429687,-0.679687 -0.914063,-0.328125 -1.898438,-0.84375 -0.960937,-0.539063 -1.710937,-1.21875 -0.726563,-0.65625 -1.289063,-1.546875 -0.5625,-0.890625 -0.960937,-2.226563 -0.375,-1.171875 -0.539063,-2.929687 -0.164062,-1.78125 -0.164062,-4.664063 v -21.5625 h 4.757812 v 23.71875 q 0,2.554688 0.140625,3.632813 0.140625,1.078125 0.492188,1.6875 0.75,1.382812 2.179687,2.085937 1.40625,0.703125 3.421875,0.703125 2.039063,0 3.445313,-0.703125 1.453125,-0.75 2.179687,-2.085937 0.375,-0.679688 0.492188,-1.664063 0.140625,-1.101562 0.140625,-3.609375 V 45.903816 h 4.734375 v 21.5625 q 0,3.09375 -0.1875,4.828125 -0.1875,1.710938 -0.46875,2.765625 -0.632813,2.273438 -2.296875,3.773438 -0.773438,0.703125 -1.734375,1.21875 -0.9375,0.515625 -1.851563,0.84375 -0.867187,0.304687 -1.96875,0.492187 -1.101562,0.1875 -2.484375,0.1875 z m 26.554688,-31.6875 H 50.347656 v -3.984375 h 26.695313 v 3.984375 H 66.097656 v 31.007813 h -4.757812 z m 22.265625,-3.984375 h 20.601561 v 3.984375 H 88.363281 v 10.78125 h 14.367189 v 3.984375 H 88.363281 v 16.242188 h -4.757812 z"
         id="text3"
         aria-label="UTF" />
      <path
         style="font-size:21.3333px;font-family:Hack;-inkscape-font-specification:Hack;text-align:center;text-anchor:middle;stroke-width:3.77953"
         d="m 25.22402,105.56804 q -1.270831,0 -2.135413,-0.54167 -0.864582,-0.54167 -1.385415,-1.44791 -0.510415,-0.90625 -0.739582,-2 -0.229166,-1.10417 -0.229166,-2.218748 0,-2.791662 1.218748,-4.416659 1.229165,-1.624998 3.312495,-1.624998 1.020832,0 1.83333,0.4375 0.812499,0.427082 1.291665,1.333331 v -6.031241 h 1.916664 v 16.208305 h -1.729164 l -0.1875,-1.46874 q -1.031248,1.77083 -3.166662,1.77083 z m 0.34375,-1.625 q 0.906248,0 1.458331,-0.42708 0.562499,-0.42709 0.854165,-1.10417 0.302083,-0.6875 0.406249,-1.46875 0.104167,-0.79166 0.104167,-1.510411 0,-0.708332 -0.104167,-1.489581 -0.104166,-0.781249 -0.406249,-1.458331 -0.291666,-0.687499 -0.854165,-1.114582 -0.552083,-0.427082 -1.458331,-0.427082 -0.916666,0 -1.479165,0.427082 -0.552082,0.427083 -0.843748,1.114582 -0.28125,0.677082 -0.385416,1.458331 -0.104167,0.781249 -0.104167,1.489581 0,0.708331 0.104167,1.500001 0.104166,0.78125 0.385416,1.46874 0.291666,0.67709 0.843748,1.11459 0.562499,0.42708 1.479165,0.42708 z m 13.791645,1.625 q -2.697913,0 -4.239577,-1.61458 -1.531247,-1.625 -1.531247,-4.427081 0,-1.739581 0.604165,-3.145829 0.614583,-1.406247 1.812497,-2.229163 1.208332,-0.833332 2.979162,-0.833332 2.33333,0 3.614578,1.499998 1.291665,1.489581 1.291665,4.13541 v 0.937499 h -8.302071 v 0.0625 q 0,1.822919 0.958332,2.906249 0.958332,1.08333 2.833329,1.08333 1.083332,0 2.093747,-0.34375 1.020832,-0.34375 1.968747,-0.83333 v 1.90624 q -0.989582,0.40625 -2.010414,0.64584 -1.010415,0.25 -2.072913,0.25 z m 2.614579,-7.177076 q 0,-0.968749 -0.291666,-1.749997 -0.291666,-0.781249 -0.937499,-1.239582 -0.635415,-0.458332 -1.687497,-0.458332 -1.062498,0 -1.781247,0.468749 -0.708332,0.458333 -1.114582,1.239581 -0.395833,0.781249 -0.499999,1.739581 z m 8.020821,-3.302078 h -3.114578 v -1.489581 h 3.114578 v -0.812499 q 0,-1.916664 0.874999,-2.822912 0.885415,-0.906249 2.749995,-0.906249 h 2.30208 v 1.593748 h -2.17708 q -1.020832,0 -1.427081,0.427082 -0.406249,0.416666 -0.406249,1.489581 v 1.031249 h 4.01041 v 1.489581 h -4.01041 V 105.26595 H 49.994815 Z M 63.28646,105.56804 q -1.687497,0 -2.791662,-0.96875 -1.093749,-0.97917 -1.093749,-2.80208 0,-1.51042 0.729166,-2.354164 0.729165,-0.854166 1.906247,-1.197915 1.177081,-0.34375 2.510413,-0.34375 h 2.572912 v -0.302082 q 0,-1.489581 -0.760415,-2.072914 -0.749999,-0.583332 -2.11458,-0.583332 -1.062499,0 -2.08333,0.291666 -1.020832,0.291666 -1.906247,0.812499 v -1.916664 q 0.958332,-0.354166 1.937497,-0.583332 0.979165,-0.229167 1.999996,-0.229167 1.041666,0 2.020831,0.291666 0.989581,0.28125 1.70833,0.937499 0.718749,0.645832 0.958332,1.739581 0.166666,0.770832 0.166666,2.322913 v 2.385416 q 0,0.97916 0.104167,2.16666 0.114583,1.1875 0.510416,2.10416 h -1.92708 q -0.177083,-0.40625 -0.28125,-0.86458 -0.104166,-0.46875 -0.166666,-0.90625 -0.614583,1.05208 -1.708331,1.5625 -1.083332,0.51042 -2.291663,0.51042 z m 0.468749,-1.60417 q 1.187498,0 1.92708,-0.58333 0.749999,-0.58333 1.093749,-1.52083 0.343749,-0.94792 0.343749,-2.031248 v -0.427083 h -2.427079 q -0.812499,0 -1.593748,0.1875 -0.770832,0.177083 -1.281248,0.687501 -0.499999,0.51041 -0.499999,1.48958 0,1.10416 0.677082,1.65625 0.677083,0.54166 1.760414,0.54166 z m 12.656231,1.60417 q -3.552077,0 -3.552077,-4.71875 v -7.229152 h 1.916663 v 7.229152 q 0,3.05208 2.281247,3.05208 1.333331,0 2.062496,-0.95833 0.729166,-0.96875 0.729166,-2.72916 v -6.593742 h 1.92708 v 11.645812 h -1.73958 l -0.1875,-1.74999 q -1.041665,2.05208 -3.437495,2.05208 z m 15.812477,-0.21875 q -1.718748,0 -2.666663,-1.10417 -0.937498,-1.11458 -0.937498,-3.12499 V 90.557643 h -3.072912 v -1.499998 h 4.989575 v 12.062485 q 0,1.27083 0.479166,1.93749 0.479166,0.66667 1.395831,0.66667 h 2.23958 v 1.625 z m 12.697893,-0.0417 q -2.14583,0 -3.04166,-0.86458 -0.88542,-0.875 -0.88542,-2.97916 v -6.374994 h -3.114575 v -1.489581 h 3.114575 v -3.052079 l 1.91667,-0.833332 v 3.885411 h 4.35416 v 1.489581 h -4.35416 v 6.374994 q 0,1.28124 0.48958,1.80208 0.48958,0.51041 1.70833,0.51041 h 2.15625 v 1.53125 z"
         id="text5"
         aria-label="default" />
    </g>
  </g>
</svg>
